<svg width="11" height="12" viewBox="0 0 11 12" fill="none" xmlns="http://www.w3.org/2000/svg">
<g clip-path="url(#clip0_28_533)">
<path d="M5.4974 10.5846C8.0287 10.5846 10.0807 8.53261 10.0807 6.0013C10.0807 3.47 8.0287 1.41797 5.4974 1.41797C2.96609 1.41797 0.914062 3.47 0.914062 6.0013C0.914062 8.53261 2.96609 10.5846 5.4974 10.5846Z" stroke="white" stroke-linecap="round" stroke-linejoin="round"/>
<path d="M8.25 6.4487C8.25 7.08153 7.60398 7.93956 7.04622 8.30111C6.48845 8.66266 5.81799 8.81334 5.15732 8.72562C4.49666 8.6379 3.88992 8.31764 3.44796 7.82335C3.006 7.32907 2.75833 6.69376 2.75021 6.03351C2.74208 5.37327 2.97405 4.73217 3.40372 4.22736C3.83339 3.72255 4.43207 3.38774 5.09038 3.28409C5.74868 3.18045 6.42266 3.3149 6.98915 3.66288C7.55564 4.01086 8.02464 4.625 8.25 5.51321H7.09777C6.97978 5.1394 6.72995 4.82013 6.39393 4.61372C6.05791 4.40732 5.65814 4.32757 5.26766 4.38904C4.87718 4.45052 4.52207 4.64912 4.26721 4.94855C4.01235 5.24798 3.87475 5.62825 3.87957 6.01988C3.88439 6.41151 4.0313 6.78834 4.29345 7.08153C4.5556 7.37472 4.91549 7.56469 5.30737 7.61672C5.69924 7.66875 6.09694 7.57937 6.42778 7.36492C6.75862 7.15046 7.00052 6.82525 7.10928 6.4487H8.25Z" fill="white"/>
</g>
<defs>
<clipPath id="clip0_28_533">
<rect width="11" height="11" fill="white" transform="translate(0 0.5)"/>
</clipPath>
</defs>
</svg>
