<svg width="24" height="24" viewBox="0 0 24 24" fill="none" xmlns="http://www.w3.org/2000/svg">
<g clip-path="url(#clip0_28_526)">
<path d="M17.7793 1.60156H6.22378C3.671 1.60156 1.60156 3.671 1.60156 6.22378V17.7793C1.60156 20.3321 3.671 22.4016 6.22378 22.4016H17.7793C20.3321 22.4016 22.4016 20.3321 22.4016 17.7793V6.22378C22.4016 3.671 20.3321 1.60156 17.7793 1.60156Z" stroke="#ECECEC" stroke-width="2" stroke-linejoin="round"/>
<path d="M12.0031 16.7992C14.6541 16.7992 16.8031 14.6502 16.8031 11.9992C16.8031 9.34824 14.6541 7.19922 12.0031 7.19922C9.35214 7.19922 7.20312 9.34824 7.20312 11.9992C7.20312 14.6502 9.35214 16.7992 12.0031 16.7992Z" stroke="#ECECEC" stroke-width="2" stroke-linejoin="round"/>
<path d="M17.5 7.50195C18.0523 7.50195 18.5 7.05425 18.5 6.50195C18.5 5.94965 18.0523 5.50195 17.5 5.50195C16.9477 5.50195 16.5 5.94965 16.5 6.50195C16.5 7.05425 16.9477 7.50195 17.5 7.50195Z" fill="#ECECEC"/>
</g>
<defs>
<clipPath id="clip0_28_526">
<rect width="24" height="24" fill="white"/>
</clipPath>
</defs>
</svg>
